<?xml version="1.0" encoding="UTF-8"?>
<svg xmlns="http://www.w3.org/2000/svg" version="1.1" viewBox="0 0 792 612">
  <defs>
    <style>
      .cls-1 {
        fill: #fff;
      }
    </style>
  </defs>
  <!-- Generator: Adobe Illustrator 28.7.1, SVG Export Plug-In . SVG Version: 1.2.0 Build 142)  -->
  <g>
    <g id="Layer_1">
      <g>
        <path class="cls-1" d="M93.31,506.69c-1.07,2.58-2.63,4.78-4.55,6.41-2.16,1.84-4.57,3.16-7.12,3.89-3.01.89-6.1,1.32-9.2,1.28h-28.54v-75.03h27.86c6.17,0,11,1.75,14.51,5.25,3.47,3.39,5.44,8.65,5.28,14.15v.21c.02,1.92-.19,3.84-.64,5.68-.4,1.58-.98,3.07-1.71,4.45-.69,1.3-1.52,2.47-2.48,3.48-.92,1-1.94,1.86-3.02,2.57,3.13,1.37,5.95,3.67,8.21,6.71,2.11,3.29,3.18,7.45,2.99,11.66v.21c.07,3.14-.48,6.26-1.59,9.08ZM78.44,465.42c.11-2.29-.73-4.5-2.23-5.83-1.94-1.46-4.19-2.13-6.45-1.94h-13.05v15.86h12.19c2.41.12,4.81-.55,6.94-1.94,1.66-1.2,2.66-3.44,2.58-5.83v-.31ZM81.79,495.43c.06-2.34-.81-4.57-2.32-5.95-2.24-1.7-4.86-2.47-7.47-2.2h-15.28v16.5h15.71c2.39.17,4.77-.5,6.87-1.94,1.67-1.33,2.62-3.69,2.49-6.16v-.25Z"/>
        <path class="cls-1" d="M118.76,518.22v-74.98h13.22v60.12h29.96v14.85h-43.18Z"/>
        <path class="cls-1" d="M243.5,495.8c-3.17,9.4-9.2,16.84-16.77,20.68-4.07,2.07-8.42,3.11-12.82,3.05-4.38.06-8.73-.98-12.78-3.05-3.75-1.92-7.18-4.72-10.09-8.24-2.84-3.48-5.08-7.64-6.6-12.23-1.59-4.77-2.39-9.88-2.37-15.05v-.21c-.01-5.16.82-10.28,2.44-15.03,3.17-9.4,9.2-16.84,16.77-20.68,8.23-4.07,17.4-4.07,25.63,0,3.76,1.92,7.18,4.73,10.09,8.26,2.84,3.47,5.08,7.63,6.6,12.21,1.59,4.77,2.39,9.9,2.37,15.07v.21c0,5.16-.84,10.27-2.48,15.01ZM232.09,480.76c.02-3.12-.43-6.21-1.32-9.12-.86-2.79-2.14-5.34-3.78-7.5-1.65-2.15-3.62-3.88-5.79-5.09-4.68-2.46-9.96-2.46-14.64,0-2.15,1.16-4.08,2.88-5.67,5.03-1.57,2.19-2.8,4.73-3.63,7.48-.9,2.89-1.34,5.96-1.32,9.06v.21c-.02,3.11.43,6.19,1.32,9.1.85,2.79,2.14,5.34,3.78,7.5,1.63,2.14,3.59,3.87,5.75,5.09,2.3,1.3,4.81,1.96,7.33,1.94,2.51.03,4.99-.58,7.3-1.81,2.16-1.17,4.11-2.88,5.71-5.03,1.59-2.18,2.84-4.71,3.69-7.46.89-2.88,1.34-5.95,1.32-9.04l-.06-.37Z"/>
        <path class="cls-1" d="M318.59,511.72c-1.68,1.66-3.51,3.07-5.45,4.22-2.06,1.22-4.24,2.12-6.48,2.68-2.6.64-5.25.94-7.89.91-4.22.05-8.4-.97-12.29-2.99-3.66-1.91-6.98-4.7-9.78-8.2-2.77-3.52-4.96-7.69-6.43-12.27-1.56-4.79-2.35-9.93-2.32-15.1v-.21c-.06-10.21,3.08-20.04,8.75-27.39,2.81-3.59,6.16-6.43,9.87-8.36,4.03-2.09,8.35-3.12,12.71-3.05,2.57-.02,5.15.26,7.68.86,2.16.52,4.28,1.31,6.31,2.37,1.85.96,3.61,2.18,5.25,3.64,1.57,1.42,3.04,2.99,4.41,4.7l-8.36,12.21c-2.15-2.47-4.56-4.55-7.16-6.2-2.56-1.53-5.37-2.31-8.21-2.25-2.41-.03-4.79.59-6.99,1.83-2.11,1.17-4,2.89-5.54,5.03-1.56,2.17-2.78,4.69-3.6,7.43-.87,2.9-1.31,5.97-1.29,9.06v.21c-.01,3.1.43,6.19,1.29,9.1.8,2.76,2.01,5.3,3.57,7.5,3.18,4.49,7.77,7.03,12.57,6.96,3.02.12,6.01-.69,8.72-2.35,2.57-1.76,4.95-3.92,7.09-6.43l8.41,10.61c-1.49,1.98-3.1,3.82-4.81,5.5Z"/>
        <path class="cls-1" d="M385.62,518.22l-18.69-31.94-6.94,9v22.94h-13.22v-74.98h13.22v32.79l24.43-32.79h15.96l-24.53,31.82,25.65,43.15h-15.88Z"/>
        <path class="cls-1" d="M435.59,458.15v16.17h28.67v14.89h-28.67v29h-13.22v-74.98h45.75v14.91h-32.53Z"/>
        <path class="cls-1" d="M528.02,518.22l-12.86-24.01h-10.39v24.01h-13.22v-74.98h27.47c7.14,0,12.71,2.18,16.69,6.55,3.99,4.37,5.97,10.44,5.96,18.21v.21c.19,5.31-1.06,10.54-3.57,14.83-2.41,3.86-5.65,6.78-9.34,8.42l14.72,26.75h-15.46ZM528.29,468.82c.16-3.07-.86-6.06-2.74-8.05-2.24-1.92-4.93-2.86-7.65-2.66h-13.13v21.58h13.39c2.7.22,5.37-.81,7.51-2.9,1.77-1.96,2.74-4.82,2.62-7.78v-.19Z"/>
        <path class="cls-1" d="M625.28,495.8c-3.17,9.41-9.21,16.85-16.79,20.68-8.23,4.07-17.39,4.07-25.62,0-3.75-1.92-7.18-4.72-10.09-8.24-2.84-3.48-5.08-7.64-6.6-12.23-1.59-4.77-2.39-9.88-2.37-15.05v-.21c-.03-5.16.79-10.27,2.4-15.03,1.57-4.6,3.83-8.79,6.66-12.32,2.9-3.59,6.34-6.43,10.12-8.36,8.23-4.07,17.4-4.07,25.63,0,3.77,1.91,7.21,4.7,10.14,8.22,2.84,3.47,5.09,7.62,6.62,12.21,1.58,4.77,2.38,9.9,2.35,15.07v.21c.01,5.17-.82,10.29-2.46,15.05ZM613.87,480.76c.03-3.14-.42-6.26-1.32-9.19-.85-2.79-2.13-5.34-3.77-7.5-1.65-2.15-3.62-3.88-5.79-5.09-4.68-2.46-9.96-2.46-14.64,0-2.16,1.15-4.09,2.87-5.67,5.03-1.6,2.21-2.86,4.77-3.71,7.56-.9,2.89-1.34,5.96-1.32,9.06v.21c-.02,3.11.43,6.19,1.32,9.1,1.72,5.61,5.14,10.14,9.53,12.6,2.3,1.3,4.81,1.96,7.33,1.94,2.51.03,4.99-.59,7.3-1.81,2.16-1.16,4.1-2.88,5.7-5.03,1.61-2.23,2.87-4.81,3.71-7.62.9-2.88,1.35-5.95,1.34-9.04l-.02-.21Z"/>
        <path class="cls-1" d="M694.14,505.99c-1.05,2.83-2.6,5.32-4.53,7.29-2.05,2.04-4.4,3.57-6.91,4.49-2.89,1.07-5.89,1.6-8.91,1.56-4.6,0-9.16-.99-13.48-2.94-4.42-2.01-8.48-5.09-11.94-9.06l7.79-11.66c2.58,2.65,5.42,4.89,8.46,6.65,2.98,1.66,6.22,2.49,9.48,2.45,2.24.13,4.46-.54,6.4-1.94,1.46-1.09,2.33-3.07,2.27-5.19v-.21c.02-.99-.15-1.96-.48-2.86-.42-.96-1.05-1.75-1.81-2.29-1.17-.88-2.4-1.59-3.69-2.14-1.56-.72-3.63-1.46-6.23-2.25-2.8-.84-5.55-1.88-8.25-3.11-2.24-1-4.34-2.43-6.23-4.24-1.71-1.66-3.08-3.81-4-6.26-1.01-2.94-1.49-6.13-1.42-9.33v-.21c-.03-3.2.5-6.36,1.56-9.27,1.01-2.73,2.48-5.15,4.3-7.11,1.94-2.06,4.19-3.63,6.62-4.61,2.74-1.11,5.61-1.65,8.49-1.61,4.13-.06,8.24.78,12.15,2.47,3.68,1.63,7.12,4.02,10.17,7.08l-6.87,12.42c-2.47-2.14-5.12-3.95-7.89-5.4-2.47-1.28-5.11-1.94-7.79-1.94-2.05-.16-4.09.52-5.79,1.94-1.21,1.07-1.93,2.81-1.93,4.67v.21c-.02,1.1.17,2.19.56,3.17.48,1.02,1.18,1.86,2.02,2.41,1.27.87,2.61,1.55,4,2.04,1.7.64,3.83,1.38,6.42,2.24,2.77.9,5.48,2.03,8.13,3.38,2.18,1.1,4.21,2.62,6.03,4.49,1.59,1.68,2.85,3.79,3.71,6.16.88,2.69,1.3,5.57,1.25,8.48v.21c.04,3.39-.51,6.76-1.62,9.86Z"/>
        <path class="cls-1" d="M747.35,458.46v59.75h-13.22v-59.75h-18.28v-15.22h49.83v15.22h-18.33Z"/>
      </g>
      <g>
        <path class="cls-1" d="M578.86,292.28c-.02,9-7.82,16.28-17.45,16.31H249.06c-9.63.45-17.83-6.47-18.31-15.46-.49-8.99,6.92-16.65,16.55-17.11.59-.03,1.18-.03,1.76,0h312.57c9.55.09,17.23,7.35,17.23,16.27Z"/>
        <path class="cls-1" d="M491.68,346.36c-.05,8.98-7.84,16.24-17.45,16.27h-138.03c-9.63.45-17.83-6.47-18.31-15.46-.49-8.99,6.92-16.65,16.55-17.11.59-.03,1.18-.03,1.76,0h138.03c9.64,0,17.45,7.3,17.45,16.31Z"/>
        <path class="cls-1" d="M423.06,171.19c-3.06,5.53-9.24,8.93-15.9,8.78-2.58-.02-5.12-.59-7.44-1.66l-97.96-45.47v122.01h-34.91V113.41c-.05-3.38.47-6.75,1.56-9.98.76-1.85,1.73-3.62,2.89-5.28,4.96-6.72,14.47-8.97,22.26-5.28l27.29,12.48,94.26,44.05c8.6,4,12.14,13.73,7.93,21.8Z"/>
        <path class="cls-1" d="M539.99,99.39c.02-.14.02-.28,0-.42,0-.33-.4-.62-.62-.96s-.71-1.16-1.11-1.75h0c-3.28-4.64-7.81-8.4-13.13-10.9l-109.62-50.67c-6.44-2.99-14-2.99-20.44,0l-109.31,50.67c-6.08,2.79-11.12,7.24-14.43,12.77,4.96-6.72,14.49-8.96,22.26-5.24l27.29,12.48,84.6-39.19,82.24,38.35-89.85,41.27c-6.09,2.7-9.97,8.43-9.97,14.73v94.3h34.82v-82.57c0-.87.54-1.67,1.38-2.04l84.6-38.98v123.59h34.91V113.41c-.01-4.87-1.25-9.67-3.61-14.02Z"/>
      </g>
    </g>
  </g>
</svg>