<?xml version="1.0" encoding="utf-8"?>
<svg xmlns="http://www.w3.org/2000/svg" viewBox="0 0 125.687 126" width="125.687px" height="126px" xmlns:bx="https://boxy-svg.com"><defs><linearGradient id="paint0_linear_1_77" x1="0" y1="63.0174" x2="125.705" y2="63.0174" gradientUnits="userSpaceOnUse"><stop offset="0.12" stop-color="#0CC2AC"/><stop offset="1" stop-color="#0075C7"/></linearGradient><bx:export><bx:file format="svg"/></bx:export></defs><path d="M0 112.031C0 112.517 0.0173746 112.986 0.0694981 113.456C0.781853 120.492 6.70656 126 13.917 126C20.0328 126 25.2278 122.039 27.0869 116.548L28.4595 111.023L32.612 79.3494C32.612 71.6351 38.8494 65.3803 46.529 65.3803C53.0792 65.3803 58.5695 69.915 60.0463 76.0309L60.8456 81.3649L65.7278 115.819L66.0232 116.757C67.9517 122.143 73.0946 126 79.1235 126H111.736C119.415 126 125.653 119.745 125.653 112.031V79.3494C125.653 71.6351 119.415 65.3803 111.736 65.3803C108.4 65.3803 105.342 66.5618 102.944 68.5251L100.79 70.7317L89.4093 88.7664L87.6197 90.417C85.5695 91.9981 83.0502 93.0232 80.3224 93.2664L79.1409 93.3185C71.4614 93.3185 65.2239 87.0637 65.2239 79.3494C65.2239 72.5907 70.0019 66.9614 76.3436 65.6583L77.5946 65.3803L112.622 60.6371L114.203 60.4286C120.736 59.2819 125.687 53.5483 125.687 46.668V13.9865C125.687 13.8475 125.687 13.6911 125.687 13.5521C125.479 6.60232 120.197 0.920849 113.438 0.104247L79.1583 0C72.2954 0 66.5965 4.98649 65.4498 11.5367L60.6544 46.112L60.3938 48.0753C59.7336 54.5212 54.7297 59.6815 48.3533 60.4981L46.5463 60.6197C38.8668 60.6197 32.6293 54.3649 32.6293 46.6506C32.6293 41.3687 35.5483 36.7819 39.8398 34.4015L41.7683 33.1853L55.4247 24.7066L57.2664 22.8475C59.2471 20.4324 60.4459 17.3398 60.4459 13.9691C60.4459 6.25483 54.2085 0 46.529 0H45.9382L14.9942 0.0521235L13.917 0.0173745C6.23745 0.0173745 0 6.2722 0 13.9865C0 18.8166 2.43243 23.056 6.13321 25.5753L7.31467 26.305L21.1274 34.7317C25.1409 37.1815 27.8166 41.612 27.8166 46.6853C27.8166 50.1429 26.5656 53.305 24.4981 55.7548L10.7722 64.8764L7.31467 67.083L6.56757 67.5174C3.28378 69.5676 0.920849 72.9556 0.225869 76.8996L0.0173745 110.571V112.048" fill="url(#paint0_linear_1_77)"/></svg>