
<svg width="100%" height="100%" viewBox="0 0 894 979">
    <g transform="matrix(1,0,0,1,-35,-45)">
        <g transform="matrix(1,0,0,1,168,45)">
            <path d="M442.149,545.458L492,567L530,586L566,594L583,600L597,607L611,618L618,625L627,637L637,654L644,673L649,693L652,720L652,745L650,763L650,771L664,797L675,822L686,851L694,880L697,897L701,903L709,910L731,932L744,949L753,963L761,979L750,979L738,959L729,947L718,934L713,928L705,921L694,911L690,915L687,914L686,897L681,872L673,847L664,823L653,799L642,778L639,773L639,763L641,749L642,727L640,703L635,680L630,665L622,649L614,637L603,625L591,616L576,609L557,603L528,597L519,593L517,593L512,599L504,603L483,608L454,614L442,618L434,623L427,629L420,637L414.057,638.639L404.839,638.504L389,632L375,622L363,613L354,609L306,595L281,588L255,580L246,576L237,569L225,559L206,547L190,539L169,532L149,528L134,527L121,527L139,549L147,562L151,571L153,578L153,582L149,580L142,569L132,555L120,541L106,528L91,518L72,508L47,499L28,494L20,492L25,509L33,527L41,539L47,546L47,548L51,550L60,558L77,568L102,580L133,595L150,605L159,612L159,601L162,602L174,624L204,684L214,703L226,724L237,741L250,758L261,770L268,777L282,788L297,798L315,808L316,811L312,812L298,808L281,799L267,789L256,780L248,774L234,767L211,751L208,750L205,759L205,778L208,790L212,801L217,809L226,819L233,825L253,836L263,854L272,865L279,873L290,882L292,886L285,885L274,878L264,869L257,861L249,847L247,842L238,839L212,829L209,829L208,832L208,839L212,851L216,857L223,864L227,867L227,869L216,867L223,891L231,908L240,921L248,929L250,932L252,966L253,979L172,979L168,960L164,927L162,904L158,896L148,881L134,856L122,830L112,803L104,776L97,746L92,713L90,690L83,689L52,677L30,666L15,657L3,649L-15,635L-25,626L-33,619L-60,592L-67,584L-75,577L-86,569L-103,559L-113,550L-117,544L-119,538L-123,498L-130,452L-133,421L-133,359L-130,324L-123,259L-122,247L-122,225L-124,209L-124,189L-122,176L-122,162L-124,147L-124,106L-119,68L-115,52L-110,44L-102,40L-99,40L-98,34L-92,26L-88,23L-73,21L-62,17L-33,13L-21,8L-11,3L0,0L9,0L18,3L24,8L28,18L32,48L45,50L53,55L57,60L59,66L59,79L53,114L49,125L45,131L36,141L20,157L9,166L-4,176L-15,183L-20,189L-23,201L-25,222L-26,240L-26,257L-24,286L-18,317L-8,352L2,388L9,421L12,447L12,480L30,483L56,490L76,498L92,506L105,514L109,517L127,516L138,516L157,518L178,523L198,531L204,534L208,533L241,519L256,510L268,499L273,490L274,486L273.982,484.74C271.168,484.935 268.137,484.853 264.931,484.361C259.877,483.586 267.839,466.324 265.931,467.361C243.031,479.807 235.891,463.532 236.931,463.361C247.337,461.65 250.782,455.378 249.671,454.809C230.263,444.866 232.268,428.945 231.931,429.361C221.09,442.746 234.011,454.704 231.931,454.361C192.448,447.859 215.313,412.627 211.931,414.361C177.409,432.063 172.268,407.434 172.931,407.361C188.879,405.624 195.195,400.447 193.931,399.361C172.228,380.715 183.513,355.902 181.931,356.361C170.067,359.804 176.476,379.393 175.195,378.818C160.109,372.054 160.23,352.96 160.931,349.361C165.128,327.796 173.24,325.723 196.55,313.808C212.691,305.557 210.861,298.212 209.443,299.361C189.065,315.876 178.594,313.492 175.931,313.361C158.827,312.52 160.16,292.806 161.931,294.361C166.757,298.6 190.21,301.915 193.274,286.861C202.03,243.842 230.16,239.283 228.931,239.361C207.84,240.704 209.025,223.937 209.931,224.361C218.202,228.237 223.634,227.777 225.931,225.361C254.586,195.219 274.753,183.827 279.931,181.361C329.025,157.982 358.933,185.845 355.931,181.361C342.399,161.15 307.602,169.431 312.931,166.361C342.587,149.275 370.088,163.34 373.931,166.361C392.375,180.86 385.248,197.485 389.931,199.361C437.132,218.276 447.136,243.403 453.931,245.361C486.449,254.733 471.526,290.743 469.931,294.361C468.341,297.969 466.405,304.191 488.959,338.701C494.814,347.659 486.145,355.623 487.918,357.326C491.198,360.477 490.931,366.361 490.931,366.361C490.931,366.361 491.931,385.298 491.931,392.361C491.931,407.885 504.941,406.293 504.931,406.361C504.202,411.388 500.653,415.792 490.931,413.361C489.597,413.028 490.019,416.175 491.931,417.361C525.438,438.15 503.893,467.299 503.931,467.361C508.412,474.68 507.348,486.847 505.931,493.361C501.305,514.625 490.667,512.386 489.931,514.361C479.909,541.255 460.791,534.752 459.931,535.361C453.634,539.819 447.699,543.099 442.149,545.458ZM283.395,482.982L282.531,488.317L280,499L272,510L262,518L247,527L227,536L216,540L221,545L235,555L248,566L256,570L302,584L355.971,599.791C345.234,569.923 325.524,524.608 309.954,496.663C300.571,487.972 294.931,477.361 294.931,477.361C294.931,477.361 290.598,480.768 283.395,482.982ZM31,56L30,57L28,68L24,73L22,74L15,74L8,71L3,65L1,59L-3,59L-4,62L-4,70L-1,77L8,83L18,86L25,87L41,86L37,91L29,94L17,95L15,96L16,101L20,109L29,117L31,117L31,119L21,117L15,114L11,110L-1,109L-12,113L-22,119L-30,128L-35,140L-36,145L-36,155L-33,165L-28,170L-21,173L-15,171L0,161L13,150L21,143L37,127L43,117L48,96L51,75L51,68L48,61L41,57L31,56ZM-33,22L-62,25L-61,27L-32,38L-26,42L-22,49L-21,59L-21,83L-19,81L-16,65L-11,56L-5,51L-4,49L-4,31L-9,25L-18,22L-33,22ZM-98,48L-104,51L-108,59L-111,75L-115,112L-115,141L-112,165L-112,175L-114,188L-114,210L-112,227L-112,242L-115,278L-121,333L-124,383L-123,419L-121,443L-116,479L-112,505L-109,536L-105,544L-99,549L-94,550L-84,545L-79,539L-77,535L-76,521L-78,497L-84,454L-87,421L-89,389L-89,313L-87,227L-86,190L-94,184L-95,182L-93,183L-79,183L-69,179L-59,170L-53,160L-50,151L-49,146L-49,135L-51,125L-55,124L-64,125L-77,121L-84,113L-90,110L-93,105L-94,86L-95,81L-90,84L-84,87L-78,88L-69,84L-70,88L-70,101L-69,106L-74,104L-77,101L-77,107L-73,114L-69,116L-60,116L-54,113L-50,107L-49,104L-49,92L-52,71L-56,66L-72,58L-92,50L-98,48ZM-83,30L-89,34L-92,40L-92,42L-76,49L-56,57L-50,61L-46,67L-43,83L-41,102L-39,105L-34,104L-30,99L-28,91L-28,54L-31,48L-39,43L-69,32L-76,30L-83,30ZM1,8L-15,13L-16,15L-3,20L1,26L3,36L4,50L23,49L23,38L20,18L17,12L12,9L8,8L1,8ZM13,57L7,58L9,63L14,67L20,68L23,65L24,57L13,57ZM405.931,499.361C408.409,519.059 399.699,535.675 411.291,527.788C424.632,518.711 404.625,488.978 405.931,499.361ZM439.961,428.907C434.346,434.52 425.886,437.856 412.931,436.361C394.382,434.221 381.913,419.674 379.931,417.361C370.542,406.408 371.998,403.69 367.931,402.361C364.492,401.238 366.336,431.066 381.931,445.361C399.425,461.397 409.931,454.361 409.931,454.361C409.931,454.361 398.226,445.657 401.931,446.361C420.106,449.816 432.786,446.382 444.931,442.361C448.377,441.22 439.931,451.361 439.931,451.361C439.931,451.361 449.891,446.164 453.931,442.361C463.124,433.709 459.557,384.816 454.733,383.854C450.27,385.555 453.974,412.713 441.337,427.422C441.456,428.05 441.347,428.465 441.082,428.552C440.707,428.676 440.333,428.794 439.961,428.907ZM367.931,486.361C367.197,482.54 365.64,493.375 365.441,497.037C364.102,521.686 385.488,516.877 383.931,515.361C376.683,508.31 370.626,500.406 367.931,486.361ZM461.931,264.361C456.194,252.251 432.832,254.985 422.931,267.361C417.048,274.714 425.986,279.821 426.931,280.361C427.414,280.637 440.009,267.548 454.061,273.629C460.065,276.228 461.936,296.323 457.944,295.534C450.084,293.98 442.931,295.361 442.931,295.361C450.906,303.038 456.962,315.199 455.931,324.361C455.362,329.417 449.82,332.637 447.931,337.361L471.931,375.361C477.14,359.735 489.811,349.507 469.931,313.361C457.66,291.051 472.768,287.24 461.931,264.361ZM480.362,467.836C480.362,471.165 488.12,497.765 493.931,493.361C499.622,489.049 480.362,450.728 480.362,467.836ZM279.85,388.115C280.07,383.807 281.276,379.398 279.931,375.361C278.738,371.784 274.424,370.19 271.931,367.361C267.342,362.155 269.439,356.509 262.668,350.46C255.164,343.754 238.894,342.498 228.931,349.361C210.802,361.849 223.619,380.957 224.931,383.361C227.949,388.895 251.85,416.338 258.931,418.361C272.838,422.335 284.999,410.704 282.931,400.361C282.757,399.492 282.475,398.65 282.15,397.819C282.309,399.572 282.168,400.861 281.492,401C279.86,401.336 273.008,396.377 271,398C268.06,400.377 263.131,403.331 259,399C257.341,397.261 253.81,390.735 254,384C254.122,379.668 259.865,375.625 259,372C256.403,361.119 246.882,359.665 244,364C240.021,369.985 245.533,377.572 245,380C244.359,382.919 231.297,371.428 236.487,361.48C237.439,359.657 246.066,345.069 263,362C265.282,364.282 273.11,374.462 279.439,387.142C279.563,387.391 279.702,387.721 279.85,388.115ZM341.785,193.807C347.178,187.145 312.591,181.909 317.665,188.145C327.373,200.078 339.638,196.459 341.785,193.807ZM382.931,204.361C342.759,196.407 274.963,208.589 265.931,255.361C265.052,259.913 296.711,270.224 285.931,304.361C284.85,307.785 273.861,321.15 284.931,346.361C286.686,350.358 290.007,342.882 291.931,344.361C294.57,346.392 293.241,347.29 308.931,382.361L310.931,356.361C315.609,365.718 318.252,376.004 322.931,385.361C330.244,399.987 320.318,380.488 321.931,364.361C322.217,361.499 340.623,389.286 340.931,396.361C341.121,400.741 338.74,404.981 338.931,409.361C340.978,403.902 345.883,399.821 347.931,394.361C350.843,386.596 346.943,381.985 359.588,358.184C362.459,352.78 368.919,340.795 376.931,336.361L367.931,356.361C379.289,345.559 388.274,342.623 389.223,342.361C396.056,340.475 382.248,337.899 385.975,326.557C390.129,313.916 408.678,315.167 400.931,317.361C389.837,320.503 387.145,328.668 390.477,332.998C398.422,343.322 406.746,327.662 433.931,329.361C444.959,330.051 451.578,330.228 449.931,319.361C448.101,307.291 438.932,294.954 432.931,291.361C421.344,284.424 401.809,274.978 421.796,254.99C423.567,253.22 430.113,247.108 441.739,245.03C441.561,244.96 415.441,210.798 382.931,204.361ZM360,249C395.277,242.378 399.647,267.421 398,267C344.707,253.374 331.659,291.512 324,294C318.221,295.877 322.128,256.109 360,249ZM345,301C333.298,301.359 341.283,275.741 366.771,270.974C379.656,268.565 389.864,271.959 397.23,280.961C401.97,286.755 399.335,302.407 395.642,298.85C390.844,294.23 385.722,275.555 363,283C362.79,283.069 349.267,286.106 345,301ZM346,305C346.961,304.566 349.759,305.269 349,306C335.715,318.802 326.703,325.703 324,323C321.297,320.297 332.966,310.883 346,305ZM367.445,287.9C374.034,284.402 383.772,291.754 382,299C381.422,301.362 371.699,307.387 358,304C357.029,303.76 357.822,294.345 363,299C364.18,300.061 359.041,292.362 367.445,287.9ZM382,307C384.496,305.441 386.635,308.59 383,311C370.161,319.514 363.106,319.178 358,318C356.973,317.763 355.946,315 357,315C361.538,315 371.113,313.8 382,307ZM319,310C316.629,307.534 330.803,302.607 333.587,302.847C336.982,303.141 334.163,305.01 334.163,305.01C334.163,305.01 320.53,311.591 319,310ZM350.866,234.086C370.057,231.01 382.395,239.011 376.502,239.265C344.78,240.627 335.475,249.501 323,254C318.097,255.768 319,239.194 350.866,234.086ZM407.329,364.361C394.104,368.076 380.647,379.673 377.931,386.361C385.661,384.622 393.201,382.101 400.931,380.361C420.632,375.928 443.615,373.831 451.931,374.361C453.681,374.473 432.562,357.273 407.329,364.361ZM272.931,436.361C263.364,447.071 287.375,465.149 289.975,465.361C293.367,465.638 292.523,447.3 286.22,439.123C280.396,431.568 272.931,436.361 272.931,436.361ZM330.931,460.361C331.387,457.926 313.384,479.631 326.931,485.361C331.847,487.441 324.567,500.202 336.931,496.361C339.792,495.472 328.391,473.915 330.931,460.361ZM260.931,291.361C251.162,294.072 254.031,306.852 254.627,312.575C254.97,315.87 255.354,317.352 243.931,331.361C278.431,331.361 260.931,291.361 260.931,291.361ZM311.931,421.361C308.98,419.811 308.78,433.973 303.931,435.361C295.593,437.748 307.931,451.361 307.931,451.361C307.931,451.361 320.088,425.648 311.931,421.361ZM480.931,433.361C478.454,435.838 485.095,438.652 488.353,446.337C495.183,462.45 497.931,457.361 497.931,457.361C502.53,445.34 484.74,429.552 480.931,433.361ZM236.925,299.361C220.545,305.148 218.859,319.643 214.931,325.361C214.931,325.361 227.934,328.118 236.931,315.361C244.053,305.262 236.925,299.361 236.925,299.361ZM439.952,279.037C439.956,279.055 449.819,280.16 446.787,292.426C446.568,293.312 448.554,290.57 456.462,292.426C455.605,286.317 454.164,281.841 450.709,278.549C447.359,275.357 439.945,279.013 439.952,279.037Z"/>
        </g>
        <g transform="matrix(1,0,0,1,126,226)">
            <path d="M0,0L6,1L12,4L8,29L6,51L6,86L8,109L12,132L22,168L32,202L38,228L42,251L44,272L44,299L41,320L36,338L35,344L41,340L46,330L52,309L62,311L67,328L75,346L83,358L89,365L89,367L93,369L102,377L119,387L144,399L175,414L192,424L201,431L201,420L204,421L216,443L246,503L256,522L268,543L279,560L292,577L303,589L310,596L324,607L339,617L357,627L358,630L354,631L340,627L323,618L309,608L298,599L290,593L276,586L253,570L250,569L247,578L247,597L250,609L254,620L259,628L268,638L275,644L295,655L305,673L314,684L321,692L332,701L334,705L327,704L316,697L306,688L299,680L291,666L289,661L280,658L254,648L251,648L250,651L250,658L254,670L258,676L265,683L269,686L269,688L258,686L265,710L273,727L282,740L290,748L292,751L294,785L295,798L225,798L223,792L218,763L213,718L198,694L188,676L177,653L166,626L157,598L150,569L145,540L143,522L143,513L157,514L158,512L153,507L116,494L93,484L77,476L63,468L47,457L34,447L21,435L13,428L-2,413L-9,405L-21,392L-29,384L-47,373L-52,370L-52,368L-42,363L-38,358L-36,354L-35,340L-37,316L-43,273L-46,240L-48,208L-48,132L-46,46L-45,17L-44,10L-35,11L-22,11L-10,7L-2,1L0,0Z"/>
        </g>
        <g transform="matrix(1,0,0,1,763,749)">
            <path d="M0,0L3,2L7,14L9,27L9,44L8,54L8,70L14,98L23,125L34,151L48,178L62,200L72,211L81,216L85,217L97,217L108,259L111,271L111,275L25,275L11,244L3,233L-11,214L-22,195L-24,191L-31,220L-39,250L-43,275L-52,275L-52,264L-49,247L-42,221L-34,189L-29,159L-26,132L-24,111L-36,117L-53,121L-62,122L-83,122L-98,120L-112,116L-119,111L-119,110L-109,110L-88,112L-65,112L-51,110L-38,106L-27,100L-17,91L-9,77L-4,62L-1,44L-1,1L0,0Z"/>
        </g>
        <g transform="matrix(1,0,0,1,473,528)">
            <path d="M9,35.153L2.095,6.5L24,23L30,31L37,37L48,42L57,45L64,52L76,58L84,60L93,61L101,66L107,68L126.255,67.755L136,70L129,97L128,103L128,113L130,112L138,85L142,75L147,76L163,84L188,96L204,104L211,108L209,110L203,112L165,118L140,124L124,132L119,139L114,152C114,152 112.284,158.567 100,157C88.61,155.547 86,150 86,150L77,135L70,127L56,119L46.704,115.694L35,89L16,48L9,35.153Z"/>
        </g>
        <g transform="matrix(1,0,0,1,763,749)">
            <path d="M0,0L3,2L7,14L9,27L9,44L7,63L4,72L-3,90L-11,101L-13,112L-19,168L-17,177L-10,193L0,211L10,224L21,240L27,252L35,271L36,275L25,275L11,244L3,233L-11,214L-22,195L-24,191L-31,220L-39,250L-43,275L-52,275L-52,264L-49,247L-42,221L-34,189L-29,159L-26,132L-24,111L-36,117L-53,121L-62,122L-83,122L-98,120L-112,116L-119,111L-119,110L-109,110L-88,112L-65,112L-51,110L-38,106L-27,100L-17,91L-9,77L-4,62L-1,44L-1,1L0,0Z"/>
        </g>
        <g transform="matrix(1,0,0,1,175,613)">
            <path d="M0,0L4,2L17,14L30,24L50,36L65,44L90,54L126,66L160,75L164,75L153,47L152,41L152,33L155,34L167,56L197,116L207,135L219,156L230,173L243,190L254,202L261,209L275,220L290,230L308,240L309,243L305,244L291,240L274,231L260,221L249,212L244,208L237,199L227,188L217,174L205,155L195,137L182,112L172,96L166,89L155,85L117,74L88,64L64,54L43,43L27,32L13,20L6,12L0,3L0,0Z"/>
        </g>
        <g transform="matrix(1,0,0,1,170,141)">
            <path d="M0,0L9,0L10,3L7,4L9,14L-3,14L-14,18L-24,24L-31,32L-36,44L-37,49L-37,59L-34,69L-29,74L-23,76L-26,79L-29,80L-36,80L-41,77L-43,75L-54,86L-63,91L-67,92L-82,92L-91,90L-94,87L-81,86L-71,82L-62,74L-56,64L-53,55L-52,50L-52,39L-54,27L-40,20L-38,20L-40,29L-45,49L-43,49L-40,37L-33,24L-23,14L-10,4L0,0Z"/>
        </g>
        <g transform="matrix(1,0,0,1,581,706)">
            <path d="M0,0L4,2L12,16L19,35L25,58L28,78L28,104L25,120L17,136L8,146L-6,154L-15,157L-27,159L-40,159L-53,156L-56,153L-55,152L-29,150L-12,146L1,139L8,132L15,118L18,107L19,97L19,81L16,60L12,43L3,14L-1,4L0,0Z"/>
        </g>
        <g transform="matrix(1,0,0,1,600,887)">
            <path d="M0,0L3,1L-7,14L-17,23L-34,36L-70,62L-88,76L-99,85L-111,95L-115,95L-113,89L-102,77L-93,68L-82,59L-66,47L-49,35L-33,23L-14,9L0,0Z"/>
        </g>
        <g transform="matrix(1,0,0,1,366,830)">
            <path d="M0,0L2,0L11,15L20,25L27,33L35,40L55,51L65,69L74,80L81,88L92,97L94,101L87,100L76,93L66,84L59,76L51,62L49,57L40,54L32,51L30,47L21,40L13,31L6,20L1,8L0,0Z"/>
        </g>
        <g transform="matrix(1,0,0,1,423,689)">
            <path d="M0,0L12,0L22,5L29,12L34,22L35,33L32,42L27,47L19,51L9,51L-1,47L-9,40L-14,31L-15,28L-15,15L-11,7L-5,2L0,0ZM3,7L-5,11L-8,17L-8,27L-4,35L4,42L10,44L18,44L23,41L27,36L28,29L26,21L20,13L13,8L3,7Z"/>
        </g>
        <g transform="matrix(1,0,0,1,643,899)">
            <path d="M0,0L5,1L17,12L33,28L40,38L44,48L45,62L42,72L38,75L37,71L37,57L35,48L31,40L22,29L13,19L2,5L0,0Z"/>
        </g>
        <g transform="matrix(1,0,0,1,721,751)">
            <path d="M0,0L2,0L1,6L-6,17L-15,28L-11,51L-11,59L-17,67L-27,77L-32,80L-37,80L-35,76L-22,63L-18,58L-19,48L-22,31L-21,26L-14,16L-3,3L0,0Z" />
        </g>
        <g transform="matrix(1,0,0,1,103,267)">
            <path d="M0,0L1,0L3,51L3,91L-2,90L-3,88L-3,56L-2,14L-1,1L0,0Z"/>
        </g>
        <g transform="matrix(1,0,0,1,293,714)">
            <path d="M0,0L7,3L26,12L40,20L45,26L46,31L41,30L29,24L11,12L1,3L0,0Z"/>
        </g>
        <g transform="matrix(1,0,0,1,357,878)">
            <path d="M0,0L5,1L16,14L23,22L28,25L38,34L38,36L26,34L18,28L8,17L1,5L0,0Z"/>
        </g>
        <g transform="matrix(1,0,0,1,520,591)">
            <path d="M0,0L3,1L20,30L27,41L32,52L33,59L31,59L17,37L5,15L0,2L0,0Z"/>
        </g>
        <g transform="matrix(1,0,0,1,121,236)">
            <path d="M0,0L2,0L3,6L3,51L2,65L0,68L-1,67L-2,60L-2,12L0,0Z"/>
        </g>
        <g transform="matrix(1,0,0,1,700,678)">
            <path d="M0,0L5,1L18,10L33,25L38,33L38,38L34,36L8,10L1,4L0,0Z"/>
        </g>
        <g transform="matrix(1,0,0,1,459,806)">
            <path d="M0,0L9,1L18,7L21,11L20,17L19,18L12,18L4,14L-2,7L-1,1L0,0Z"/>
        </g>
        <g transform="matrix(1,0,0,1,154,104)">
            <path d="M0,0L1,0L3,18L9,26L9,28L-4,35L-7,36L-6,22L-3,6L0,0Z"/>
        </g>
        <g transform="matrix(1,0,0,1,736,814)">
            <path d="M0,0L5,1L6,8L2,14L-5,18L-11,18L-12,17L-12,10L-6,3L0,0Z"/>
        </g>
        <g transform="matrix(1,0,0,1,464,580)">
            <path d="M0,0L2,0L1,11L-7,27L-12,32L-15,32L-14,26L-4,7L-1,1L0,0Z"/>
        </g>
        <g transform="matrix(1,0,0,1,813,991)">
            <path d="M0,0L10,1L20,5L26,13L24,14L3,5L0,2L0,0Z"/>
        </g>
        <g transform="matrix(1,0,0,1,74,133)">
            <path d="M0,0L5,5L10,8L6,19L2,21L0,17L0,0Z"/>
        </g>
        <g transform="matrix(1,0,0,1,582,614)">
            <path d="M0,0L1,3L-7,18L-14,26L-15,23L-9,11L-1,1L0,0Z"/>
        </g>
    </g>
</svg>
